<svg xmlns="http://www.w3.org/2000/svg" xmlns:xlink="http://www.w3.org/1999/xlink" version="1.1" id="Your_Icon" x="0px" y="0px" width="100px" height="100px" viewBox="0 0 100 100" enable-background="new 0 0 100 100" xml:space="preserve">
<path d="M73.133,38.688c-1.326-4.456-3.407-8.639-6.631-11.973c-0.854-0.883-1.768-1.707-2.679-2.53  c-0.714-0.645-2.484-1.69-2.853-2.558c1.879,4.422,3.762,9.009,2.343,13.857c-0.641,2.193-3.067,7.445-6.227,6.106  c-2.989-1.267-2.641-7.531-2.898-10.062c-0.632-6.21-2.004-12.408-5.316-17.783c-1.804-2.928-4.167-5.532-7.142-7.298  c-3.907-2.319-7.959-3.878-12.405-2.197c0.979-0.37,3.557,2.593,4.038,3.164c1.558,1.847,2.856,4.032,3.551,6.355  c1.412,4.72,0.18,10.095-1.469,14.594c-3.413,9.311-9.107,17.685-11.84,27.26c-0.953,3.337-1.607,6.767-1.786,10.237  c-0.562,10.931,5.113,20.944,14.102,27.058c2.04,1.387,5.667,3.124,8.25,2.23c-7.545-4.035-10.054-7.35-11.219-12.099  c-2.701-11.01,7.602-18.001,12.058-26.71c1.186-2.318,2.047-4.865,1.747-7.494c-0.112-0.98-1.228-5.8-2.708-5.563  c4.486-0.719,7.407,2.267,8.942,6.163c1.617,4.104,2.578,8.32,1.864,12.685c-0.239,1.46-1.337,6.021,0.777,6.317  c2.91,0.409,5.408-3.452,4.811-7.177c-0.307-1.713-0.613-4.384-0.613-4.385c3.092,3.809,4.494,7.621,4.948,11.802  c0.812,7.483-2.376,17.318-8.373,23.425c2.521-2.568,5.73-4.343,8.164-7.085c2.486-2.799,4.383-6.037,5.866-9.464  c3.32-7.67,5.259-16.34,4.719-24.715C74.898,46.852,74.316,42.662,73.133,38.688z"/>
</svg>